<svg width="24" height="25" viewBox="0 0 24 25" fill="none" xmlns="http://www.w3.org/2000/svg">
<path d="M23.7266 22.9071L17.8694 17.0501C19.3254 15.2994 20.2025 13.0511 20.2025 10.6016C20.2025 5.03154 15.671 0.5 10.1013 0.5C4.5314 0.5 0 5.03154 0 10.6016C0 16.1712 4.5314 20.7024 10.1013 20.7024C12.5507 20.7024 14.799 19.8254 16.5498 18.3695L22.407 24.2266C22.5892 24.409 22.8281 24.5 23.0668 24.5C23.3056 24.5 23.5445 24.409 23.7267 24.2266C24.0911 23.8622 24.0911 23.2715 23.7266 22.9071ZM1.86621 10.6016C1.86621 6.06057 5.56042 2.36622 10.1013 2.36622C14.642 2.36622 18.3361 6.06057 18.3361 10.6016C18.3361 15.1422 14.642 18.8362 10.1013 18.8362C5.56042 18.8362 1.86621 15.1422 1.86621 10.6016Z" fill="white"/>
</svg>
