<svg width="130" height="53" viewBox="0 0 130 53" fill="none" xmlns="http://www.w3.org/2000/svg">
<path d="M108.984 0L103.405 32.1353L97.1745 0H38.5908H29.6638C23.4335 0 18.0401 1.30404 13.5765 3.81898C9.11302 6.33392 5.67239 9.68717 3.34764 13.8787C1.11588 17.9772 0 22.355 0 27.0123C0 31.4833 1.11588 35.6749 3.25465 39.6801C5.39342 43.6854 8.74106 46.8524 13.1116 49.2742C17.4821 51.7891 22.7825 53 28.8269 53H38.9628V34.3708H28.9199C26.6881 34.3708 24.9213 33.6257 23.6195 32.1353C22.3176 30.645 21.6667 28.9684 21.6667 27.0123C21.6667 24.9631 22.3176 23.1002 23.7124 21.4235C25.0143 19.7469 26.7811 18.9086 28.9199 18.9086H48.7268V53H71.2303V18.9086H81.3662L90.3863 53H116.516L130 0H108.984Z" fill="white"/>
</svg>
