<?xml version="1.0" encoding="utf-8"?>
<!-- Generator: Adobe Illustrator 27.0.0, SVG Export Plug-In . SVG Version: 6.00 Build 0)  -->
<svg version="1.1" id="Layer_1" xmlns="http://www.w3.org/2000/svg" xmlns:xlink="http://www.w3.org/1999/xlink" x="0px" y="0px"
	 width="1000px" height="265px" viewBox="0 0 1000 265" style="enable-background:new 0 0 1000 265;" xml:space="preserve">
<style type="text/css">
	.st0{fill:#008883;}
	.st1{fill:#D6000D;}
</style>
<g>
	<rect x="637.8" y="181.1" class="st0" width="83.7" height="69.5"/>
	<path class="st0" d="M250.9,222.7l-0.2,0.3v27.6h119.5V17.1H250.7l0.2,27.9C291.8,104.1,291.7,162.2,250.9,222.7z"/>
	<path class="st0" d="M475.8,117.1l-3.4-2.9l2.8-3.5c12.8-16.2,15.8-37.5,7.8-57c-9.1-22.2-29.4-36.4-53-37.3h-46.6v234.2h46.6
		c33-1.8,59.5-22.1,69-53C508.2,168.2,499.2,137.4,475.8,117.1z"/>
	<path class="st0" d="M500.3,125.7c20.4,32.4,20.4,64.6,0,98.5l-0.2,0.3v26.1l123.9,0.4V16.7l-123.9-0.4L500.3,125.7z"/>
	<path class="st0" d="M708,16.4v69.5h-70.2V16.4H708z"/>
	<rect x="637.8" y="98.1" class="st0" width="83.7" height="68.8"/>
	<polygon class="st0" points="718.9,85 734,85 734.3,250.6 852.1,250.6 852.1,16.4 719.2,16.4 	"/>
	<g>
		<path class="st0" d="M213.4,26.3l-78.7,134.4L56.1,26.2C22.6,50.1,0.8,88.9,0.8,132.7c0,72.7,60,131.6,133.9,131.6
			c74,0,133.9-58.9,133.9-131.6C268.6,78.1,236.3,42.6,213.4,26.3z"/>
		<path class="st1" d="M202.5,19.3c-19.9-11.5-43-18.2-67.8-18.2C110,1.1,86.9,7.8,67,19.3l67.7,115.8L202.5,19.3z"/>
	</g>
	<polygon class="st0" points="879.9,168 879.9,250.6 999.2,250.6 999.2,16.6 879.9,16.6 879.9,99.2 864.3,99.2 864.3,168 	"/>
</g>
</svg>
